<!DOCTYPE svg PUBLIC "-//W3C//DTD SVG 1.1//EN" "http://www.w3.org/Graphics/SVG/1.1/DTD/svg11.dtd">
<!-- Uploaded to: SVG Repo, www.svgrepo.com, Transformed by: SVG Repo Mixer Tools -->
<svg width="800px" height="800px" viewBox="0 0 24 24" fill="none" xmlns="http://www.w3.org/2000/svg" stroke="#424242">
<g id="SVGRepo_bgCarrier" stroke-width="0"/>
<g id="SVGRepo_tracerCarrier" stroke-linecap="round" stroke-linejoin="round" stroke="#CCCCCC" stroke-width="0.384"/>
<g id="SVGRepo_iconCarrier"> <path d="M12 13.75C12.9665 13.75 13.75 12.9665 13.75 12C13.75 11.0335 12.9665 10.25 12 10.25C11.0335 10.25 10.25 11.0335 10.25 12C10.25 12.9665 11.0335 13.75 12 13.75Z" fill="#424242"/> <path d="M19 13.75C19.9665 13.75 20.75 12.9665 20.75 12C20.75 11.0335 19.9665 10.25 19 10.25C18.0335 10.25 17.25 11.0335 17.25 12C17.25 12.9665 18.0335 13.75 19 13.75Z" fill="#424242"/> <path d="M5 13.75C5.9665 13.75 6.75 12.9665 6.75 12C6.75 11.0335 5.9665 10.25 5 10.25C4.0335 10.25 3.25 11.0335 3.25 12C3.25 12.9665 4.0335 13.75 5 13.75Z" fill="#424242"/> </g>
</svg>